<svg xmlns="http://www.w3.org/2000/svg" viewBox="0 0 96 96" role="img" aria-labelledby="title desc">
  <title id="title">Stoski Films</title>
  <desc id="desc">Símbolo de lente cinematográfica da Stoski Films.</desc>
  <defs>
    <linearGradient id="champagne" x1="18" y1="12" x2="80" y2="86" gradientUnits="userSpaceOnUse">
      <stop offset="0" stop-color="#F0D7A0"/>
      <stop offset="0.5" stop-color="#C9A86A"/>
      <stop offset="1" stop-color="#8A6837"/>
    </linearGradient>
  </defs>
  <rect x="5" y="5" width="86" height="86" rx="28" fill="#0A0A0A" stroke="url(#champagne)" stroke-width="2"/>
  <circle cx="48" cy="48" r="29" fill="none" stroke="#F4EFE6" stroke-opacity=".14" stroke-width="1.4"/>
  <path d="M48 22.5 63.4 31.4 57.8 41H38.2L48 22.5Z" fill="url(#champagne)"/>
  <path d="M70.2 35.2v17.7l-11.1.1-9.8-17 20.9-.8Z" fill="url(#champagne)" opacity=".92"/>
  <path d="m70.1 60.7-15.3 8.9-5.6-9.7 9.8-17 11.1 17.8Z" fill="url(#champagne)" opacity=".84"/>
  <path d="M48 73.5 32.6 64.6l5.6-9.7h19.6L48 73.5Z" fill="url(#champagne)" opacity=".76"/>
  <path d="M25.8 60.8V43.1l11.1-.1 9.8 17-20.9.8Z" fill="url(#champagne)" opacity=".68"/>
  <path d="m25.9 35.3 15.3-8.9 5.6 9.7-9.8 17-11.1-17.8Z" fill="url(#champagne)" opacity=".6"/>
  <circle cx="48" cy="48" r="8.8" fill="#0A0A0A" stroke="#F0D7A0" stroke-width="1.6"/>
  <circle cx="48" cy="48" r="2.3" fill="#F0D7A0"/>
</svg>
